<svg width="250" height="40" viewBox="0 0 250 40" fill="none" xmlns="http://www.w3.org/2000/svg"><g clip-path="url(#clip0)"><path fill-rule="evenodd" clip-rule="evenodd" d="M22.11 17.727h17.688v4.431H26.532v13.295h4.422V26.59h8.844v4.432h-4.421v4.431h4.421v4.432H22.11V17.727zM39.798 0v4.432H0V0h39.798z" fill="#CCC"/><path fill-rule="evenodd" clip-rule="evenodd" d="M39.798 8.863v4.432H22.11V8.863h17.688zm-22.11 4.432v26.59h-4.422v-26.59H8.844v26.59H4.422v-26.59H0V8.863h17.688v4.432z" fill="#0A7F2E"/><path d="M53.115 15.203V2.39H47.03V.723h13.966V2.39h-6.085v12.814h-1.796zm8.659 0V.723H73.14V2.39h-9.57v4.244h5.79V8.3h-5.79v5.239h10.16v1.665H61.773zm26.158-4.62l1.448 1.074c-.661 1.258-1.573 2.23-2.725 2.906-1.149.676-2.458 1.016-3.927 1.016-2.163 0-3.95-.716-5.362-2.144-1.407-1.429-2.113-3.242-2.113-5.44 0-2.203.706-4.021 2.118-5.45C78.787 1.118 80.57.402 82.723.402c1.336 0 2.556.29 3.655.877a7.096 7.096 0 012.68 2.508L87.553 4.86a4.937 4.937 0 00-1.962-2.032c-.853-.488-1.81-.735-2.863-.735-1.622 0-2.967.56-4.03 1.675-1.064 1.115-1.595 2.525-1.595 4.227 0 1.705.531 3.116 1.595 4.226 1.063 1.11 2.408 1.666 4.03 1.666 1.134 0 2.14-.282 3.02-.842.88-.56 1.608-1.379 2.184-2.462zm4.665 4.62V.723h1.823v5.722h8.524V.723h1.796v14.48h-1.796V8.111h-8.525v7.092h-1.822zm16.517 0V.723h.943l9.377 10.822V.723h1.796v14.48h-.916L110.91 4.381v10.822h-1.796zm22.754-1.316c1.622 0 2.967-.555 4.034-1.666 1.064-1.11 1.595-2.52 1.595-4.226 0-1.71-.531-3.126-1.59-4.236-1.059-1.11-2.408-1.666-4.039-1.666-1.622 0-2.967.56-4.034 1.675-1.064 1.115-1.595 2.525-1.595 4.227 0 1.705.531 3.116 1.595 4.226 1.067 1.11 2.412 1.666 4.034 1.666zm-.005 1.692c-2.166 0-3.954-.716-5.361-2.144-1.407-1.429-2.113-3.242-2.113-5.44 0-2.203.706-4.021 2.122-5.45 1.412-1.428 3.195-2.144 5.352-2.144 2.163 0 3.954.716 5.379 2.153 1.421 1.433 2.132 3.247 2.132 5.44 0 2.2-.711 4.012-2.127 5.44-1.416 1.429-3.212 2.145-5.384 2.145zm22.196-4.996l1.448 1.074c-.662 1.258-1.573 2.23-2.726 2.906-1.148.676-2.457 1.016-3.927 1.016-2.162 0-3.949-.716-5.361-2.144-1.407-1.429-2.113-3.242-2.113-5.44 0-2.203.706-4.021 2.117-5.45 1.417-1.428 3.199-2.144 5.353-2.144 1.336 0 2.555.29 3.654.877a7.098 7.098 0 012.681 2.508l-1.506 1.074a4.935 4.935 0 00-1.961-2.032c-.853-.488-1.809-.735-2.864-.735-1.621 0-2.966.56-4.03 1.675-1.063 1.115-1.595 2.525-1.595 4.227 0 1.705.532 3.116 1.595 4.226 1.064 1.11 2.409 1.666 4.03 1.666 1.135 0 2.14-.282 3.021-.842.88-.56 1.608-1.379 2.184-2.462zm10.991 3.304c1.622 0 2.966-.555 4.034-1.666 1.063-1.11 1.595-2.52 1.595-4.226 0-1.71-.532-3.126-1.59-4.236-1.059-1.11-2.409-1.666-4.039-1.666-1.622 0-2.967.56-4.035 1.675-1.063 1.115-1.595 2.525-1.595 4.227 0 1.705.532 3.116 1.595 4.226 1.068 1.11 2.413 1.666 4.035 1.666zm-.005 1.692c-2.167 0-3.954-.716-5.361-2.144-1.407-1.429-2.113-3.242-2.113-5.44 0-2.203.706-4.021 2.122-5.45 1.412-1.428 3.194-2.144 5.352-2.144 2.163 0 3.954.716 5.379 2.153 1.421 1.433 2.132 3.247 2.132 5.44 0 2.2-.711 4.012-2.127 5.44-1.416 1.429-3.212 2.145-5.384 2.145zm12.385-8.408h6.38c.907 0 1.595-.202 2.059-.605.47-.398.702-.99.702-1.768 0-.757-.232-1.352-.702-1.773-.464-.426-1.121-.636-1.97-.636h-6.469V7.17zm-1.796 8.032V.723h8.292c1.412 0 2.515.358 3.319 1.07.8.712 1.202 1.697 1.202 2.955 0 1.048-.312 1.944-.938 2.691-.63.748-1.456 1.214-2.484 1.397l3.61 6.367h-1.984l-3.614-6.34h-5.607v6.34h-1.796zm17.804-8.032h6.38c.907 0 1.595-.202 2.059-.605.469-.398.702-.99.702-1.768 0-.757-.233-1.352-.702-1.773-.464-.426-1.121-.636-1.97-.636h-6.469V7.17zm-1.796 8.032V.723h8.292c1.403 0 2.506.35 3.31 1.048.809.698 1.211 1.657 1.211 2.87 0 1.258-.388 2.279-1.17 3.054-.778.779-1.819 1.168-3.114 1.168h-6.733v6.34h-1.796z" fill="#0A7F2E" stroke="#0A7F2E" stroke-width=".076" stroke-miterlimit="22.926"/><path d="M51.001 27.531h-.782l-1.39-1.565 1.39-1.603h.79l-1.427 1.603 1.42 1.565zm-1.809 0h-.771l-1.39-1.565 1.39-1.603h.771l-1.41 1.603 1.41 1.565zm8.262.932h-.865l-.706-1.874h-2.828l-.665 1.874h-.868l2.556-6.682h.81l2.566 6.682zm-1.828-2.577L54.58 23.04a2.816 2.816 0 01-.102-.447h-.019c-.03.19-.066.337-.106.447l-1.038 2.847h2.311zm7.412 2.577h-.952l-1.535-2.558a2.42 2.42 0 01-.154-.33h-.019c-.03.071-.082.181-.157.33l-1.58 2.558h-.96l2.232-3.36-2.054-3.322h.957l1.362 2.348c.09.156.17.311.238.466h.02a4.83 4.83 0 01.26-.484l1.417-2.33h.898l-2.098 3.313 2.126 3.37zm1.015 0v-6.682h1.897c.576 0 1.034.142 1.37.423.339.283.509.652.509 1.105 0 .38-.103.708-.308.988a1.65 1.65 0 01-.846.597v.019c.45.052.81.223 1.08.509.27.288.404.662.404 1.121 0 .571-.205 1.034-.614 1.389-.41.355-.926.531-1.55.531h-1.942zm.78-5.974v2.158h.8c.428 0 .764-.103 1.01-.31.245-.207.367-.498.367-.875 0-.649-.425-.973-1.28-.973h-.896zm0 2.861v2.405h1.061c.459 0 .814-.11 1.067-.326.254-.218.379-.517.379-.895 0-.79-.537-1.184-1.61-1.184h-.896zm7.365 3.225c-.945 0-1.703-.312-2.27-.937-.57-.624-.855-1.437-.855-2.437 0-1.076.29-1.933.87-2.572.58-.64 1.37-.961 2.368-.961.92 0 1.662.312 2.224.932.563.622.844 1.435.844 2.438 0 1.09-.289 1.952-.865 2.587-.576.633-1.347.95-2.316.95zm.056-6.198c-.7 0-1.268.253-1.706.76-.437.507-.656 1.171-.656 1.994 0 .824.213 1.485.64 1.988.425.501.982.752 1.666.752.732 0 1.308-.238 1.73-.717.422-.479.632-1.148.632-2.009 0-.883-.203-1.564-.613-2.046-.41-.482-.974-.722-1.693-.722zm9.216 6.086h-.93l-1.117-1.874a4.077 4.077 0 00-.297-.445 1.701 1.701 0 00-.295-.299 1.012 1.012 0 00-.326-.17 1.306 1.306 0 00-.393-.054h-.641v2.842h-.782v-6.682h1.99c.291 0 .561.037.807.11.246.073.46.183.641.332.183.15.324.336.426.557.103.223.154.482.154.78 0 .233-.035.448-.105.642-.07.194-.168.367-.297.518a1.794 1.794 0 01-.465.39 2.399 2.399 0 01-.613.25v.017c.113.051.21.107.292.17.081.066.16.14.234.228.075.086.15.185.222.296.073.11.154.237.243.383l1.252 2.01zm-4-5.974v2.424h1.06c.196 0 .377-.03.542-.09a1.22 1.22 0 00.43-.254c.12-.11.216-.245.284-.405.069-.16.102-.34.102-.538 0-.358-.115-.636-.346-.837-.23-.2-.565-.3-1.002-.3h-1.07zm7.509 6.086c-.946 0-1.703-.312-2.272-.937-.568-.624-.853-1.437-.853-2.437 0-1.076.29-1.933.87-2.572.579-.64 1.369-.961 2.367-.961.921 0 1.662.312 2.224.932.563.622.844 1.435.844 2.438 0 1.09-.289 1.952-.865 2.587-.576.633-1.347.95-2.315.95zm.055-6.198c-.7 0-1.268.253-1.706.76-.437.507-.656 1.171-.656 1.994 0 .824.213 1.485.64 1.988.425.501.983.752 1.667.752.731 0 1.308-.238 1.73-.717.422-.479.631-1.148.631-2.009 0-.883-.203-1.564-.612-2.046-.41-.482-.975-.722-1.694-.722zm7.952.112h-1.925v5.974h-.781V22.49h-1.92v-.708h4.626v.708zm7.601 0h-1.925v5.974h-.781V22.49H95.96v-.708h4.627v.708zm4.58 5.974h-3.533v-6.682h3.385v.708h-2.604v2.223h2.409v.704h-2.409v2.34h2.752v.707zm5.887 0h-.952l-1.535-2.558a2.468 2.468 0 01-.154-.33h-.019c-.03.071-.083.181-.157.33l-1.581 2.558h-.959l2.232-3.36-2.054-3.322h.957l1.362 2.348c.09.156.17.311.238.466h.019c.099-.205.186-.366.26-.484l1.418-2.33h.898l-2.098 3.313 2.125 3.37zm6.389 0h-.958l-3.432-5.327a2.195 2.195 0 01-.214-.418h-.027c.024.143.036.448.036.918v4.827h-.781v-6.682h1.015l3.338 5.243c.139.216.23.365.269.447h.019c-.031-.193-.047-.52-.047-.983V21.78h.782v6.682zm4.436.112c-.946 0-1.703-.312-2.271-.937-.569-.624-.854-1.437-.854-2.437 0-1.076.29-1.933.87-2.572.579-.64 1.369-.961 2.368-.961.92 0 1.661.312 2.223.932.564.622.845 1.435.845 2.438 0 1.09-.289 1.952-.865 2.587-.576.633-1.348.95-2.316.95zm.056-6.198c-.7 0-1.269.253-1.707.76-.436.507-.655 1.171-.655 1.994 0 .824.213 1.485.639 1.988.426.501.983.752 1.667.752.732 0 1.308-.238 1.73-.717.422-.479.632-1.148.632-2.009 0-.883-.203-1.564-.613-2.046-.409-.482-.974-.722-1.693-.722zm7.895 6.086h-3.459v-6.682h.781v5.974h2.678v.708zm3.384.112c-.946 0-1.703-.312-2.271-.937-.569-.624-.854-1.437-.854-2.437 0-1.076.29-1.933.87-2.572.579-.64 1.369-.961 2.368-.961.92 0 1.661.312 2.223.932.564.622.845 1.435.845 2.438 0 1.09-.289 1.952-.865 2.587-.576.633-1.348.95-2.316.95zm.056-6.198c-.7 0-1.269.253-1.707.76-.436.507-.655 1.171-.655 1.994 0 .824.212 1.485.639 1.988.426.501.983.752 1.667.752.732 0 1.308-.238 1.73-.717.422-.479.632-1.148.632-2.009 0-.883-.203-1.564-.613-2.046-.41-.482-.974-.722-1.693-.722zm9.42 5.63a4.447 4.447 0 01-2.231.568c-.951 0-1.721-.307-2.308-.923-.589-.614-.882-1.428-.882-2.442 0-1.034.327-1.883.979-2.546.652-.664 1.479-.996 2.481-.996.725 0 1.334.12 1.826.355v.867c-.538-.342-1.177-.513-1.915-.513-.746 0-1.359.258-1.837.773-.477.516-.716 1.184-.716 2.005 0 .844.223 1.51.665 1.991.443.484 1.045.725 1.805.725.521 0 .972-.105 1.353-.311v-1.874h-1.461v-.708h2.241v3.029zm2.33.456h-.781v-6.682h.781v6.682zm6.087-6.683l-2.198 4.213v2.47h-.783v-2.45l-2.143-4.232h.888l1.493 3.019c.018.038.073.175.162.41h.014a2.69 2.69 0 01.177-.41l1.563-3.02h.827zm5.348 6.683h-.865l-.706-1.874h-2.828l-.665 1.874h-.869l2.557-6.682h.81l2.566 6.682zm-1.828-2.577l-1.046-2.847a2.908 2.908 0 01-.102-.447h-.019c-.03.19-.066.337-.106.447l-1.038 2.847h2.311zm6.268 2.577h-3.458v-6.682h.781v5.974h2.677v.708zm6.465 0h-.865l-.707-1.874h-2.828l-.665 1.874h-.868l2.557-6.682h.809l2.567 6.682zm-1.829-2.577l-1.046-2.847a2.816 2.816 0 01-.101-.447h-.019c-.031.19-.067.337-.107.447l-1.038 2.847h2.311zm7.59 2.577h-.931l-1.117-1.874a3.978 3.978 0 00-.297-.445 1.705 1.705 0 00-.295-.299 1.012 1.012 0 00-.325-.17 1.308 1.308 0 00-.394-.054h-.641v2.842h-.781v-6.682h1.99c.291 0 .561.037.807.11.246.073.46.183.641.332.182.15.324.336.425.557.103.223.154.482.154.78 0 .233-.035.448-.105.642a1.652 1.652 0 01-.296.518 1.815 1.815 0 01-.465.39 2.406 2.406 0 01-.613.25v.017c.113.051.209.107.292.17.081.066.16.14.233.228.075.086.15.185.222.296.073.11.154.237.243.383l1.253 2.01zm-4-5.974v2.424h1.06c.195 0 .376-.03.541-.09a1.194 1.194 0 00.715-.659c.068-.16.101-.34.101-.538 0-.358-.114-.636-.346-.837-.23-.2-.565-.3-1.001-.3h-1.07zm5.697 5.974h-.781v-6.682h.781v6.682zm9.32-6.683l-2.47 6.683h-.86l-2.417-6.682h.869l1.846 5.298c.059.17.103.368.135.592h.018c.025-.186.076-.387.154-.601l1.884-5.29h.841zm5.562 6.683h-.865l-.707-1.874H185.3l-.665 1.874h-.868l2.557-6.682h.809l2.567 6.682zm-1.829-2.577l-1.046-2.847a2.816 2.816 0 01-.101-.447h-.019c-.031.19-.067.337-.107.447l-1.038 2.847h2.311zm10.581 2.577h-.866l-.706-1.874h-2.828l-.665 1.874h-.868l2.557-6.682h.809l2.567 6.682zm-1.829-2.577l-1.046-2.847a2.908 2.908 0 01-.102-.447h-.019c-.03.19-.066.337-.106.447l-1.038 2.847h2.311zm7.412 2.577h-.953l-1.535-2.558a2.468 2.468 0 01-.154-.33h-.019a5.95 5.95 0 01-.157.33l-1.581 2.558h-.958l2.231-3.36-2.053-3.322h.957l1.362 2.348c.09.156.169.311.237.466h.02c.098-.205.185-.366.26-.484l1.417-2.33h.899l-2.099 3.313 2.126 3.37zm1.014 0v-6.682h1.897c.576 0 1.034.142 1.371.423.338.283.508.652.508 1.105 0 .38-.103.708-.308.988-.205.28-.486.479-.846.597v.019c.449.052.809.223 1.079.509.27.288.405.662.405 1.121 0 .571-.205 1.034-.614 1.389-.41.355-.926.531-1.549.531h-1.943zm.781-5.974v2.158h.8c.427 0 .763-.103 1.009-.31.245-.207.367-.498.367-.875 0-.649-.425-.973-1.279-.973h-.897zm0 2.861v2.405h1.06c.459 0 .814-.11 1.067-.326.254-.218.379-.517.379-.895 0-.79-.536-1.184-1.609-1.184h-.897zm7.364 3.225c-.945 0-1.702-.312-2.271-.937-.568-.624-.854-1.437-.854-2.437 0-1.076.291-1.933.87-2.572.579-.64 1.37-.961 2.368-.961.921 0 1.662.312 2.224.932.563.622.844 1.435.844 2.438 0 1.09-.289 1.952-.865 2.587-.576.633-1.347.95-2.316.95zm.056-6.198c-.7 0-1.268.253-1.706.76-.437.506-.656 1.171-.656 1.994 0 .824.213 1.485.64 1.988.425.501.982.752 1.666.752.732 0 1.308-.238 1.731-.717.422-.479.631-1.148.631-2.009 0-.883-.203-1.564-.612-2.046-.41-.482-.975-.722-1.694-.722zm9.216 6.086h-.93l-1.117-1.874a4.12 4.12 0 00-.297-.445 1.705 1.705 0 00-.295-.299 1.017 1.017 0 00-.326-.17 1.302 1.302 0 00-.393-.054h-.641v2.842h-.781v-6.682h1.99c.29 0 .56.037.806.11a1.8 1.8 0 01.642.332c.182.15.323.336.425.557.103.223.154.482.154.78 0 .233-.035.448-.105.642-.07.194-.168.367-.297.518a1.782 1.782 0 01-.465.39 2.398 2.398 0 01-.612.25v.017c.112.051.209.107.292.17.081.066.16.14.233.228.075.086.149.185.222.296.073.11.154.237.243.383l1.252 2.01zm-3.999-5.974v2.424h1.06c.195 0 .376-.03.541-.09.167-.058.31-.142.43-.254.121-.11.216-.245.284-.405.069-.16.102-.34.102-.538 0-.358-.114-.636-.346-.837-.23-.2-.565-.3-1.002-.3h-1.069zm7.51 6.086c-.946 0-1.703-.312-2.272-.937-.568-.624-.853-1.437-.853-2.437 0-1.076.29-1.933.869-2.572.58-.64 1.37-.961 2.368-.961.921 0 1.662.312 2.224.932.563.622.844 1.435.844 2.438 0 1.09-.289 1.952-.865 2.587-.576.633-1.347.95-2.315.95zm.055-6.198c-.7 0-1.268.253-1.706.76-.436.506-.656 1.171-.656 1.994 0 .824.213 1.485.64 1.988.425.501.983.752 1.667.752.731 0 1.308-.238 1.73-.717.422-.479.631-1.148.631-2.009 0-.883-.203-1.564-.612-2.046-.41-.482-.975-.722-1.694-.722zm7.952.112h-1.925v5.974h-.781V22.49h-1.921v-.708h4.627v.708zm-5.739 14.893l-1.398 1.575h-.768l1.405-1.575-1.405-1.594h.768l1.398 1.594zm-1.807 0l-1.391 1.575h-.79l1.432-1.575-1.432-1.594h.79l1.391 1.594zM52.257 39.889h-.93l-1.117-1.874a4.071 4.071 0 00-.297-.446 1.695 1.695 0 00-.295-.299 1.012 1.012 0 00-.326-.17 1.305 1.305 0 00-.393-.054h-.641v2.843h-.781v-6.683h1.99c.29 0 .56.037.806.11a1.8 1.8 0 01.642.332c.182.15.323.336.425.557.103.223.154.482.154.781 0 .232-.035.447-.105.641-.07.194-.168.368-.297.519a1.792 1.792 0 01-.465.39 2.397 2.397 0 01-.613.25v.017c.113.05.21.106.293.17.08.065.16.14.233.227.075.086.15.185.222.296.073.11.154.237.243.384l1.252 2.009zm-4-5.975v2.424h1.06a1.6 1.6 0 00.542-.089c.167-.059.31-.143.43-.254.12-.11.216-.245.284-.406a1.34 1.34 0 00.102-.538c0-.357-.114-.636-.346-.836-.23-.2-.565-.301-1.002-.301h-1.07zm8.449 5.975h-3.533v-6.683h3.386v.708h-2.605v2.224h2.41v.703h-2.41v2.34h2.752v.708zm.971-.271v-.922a1.8 1.8 0 00.38.25c.147.076.302.14.464.19.164.051.327.09.49.12.166.027.318.04.456.04.481 0 .84-.088 1.078-.268.236-.178.355-.436.355-.77a.901.901 0 00-.119-.47 1.354 1.354 0 00-.327-.367 3.268 3.268 0 00-.495-.318 53.43 53.43 0 00-.617-.318 9.517 9.517 0 01-.651-.36 2.8 2.8 0 01-.525-.4 1.677 1.677 0 01-.351-.496 1.529 1.529 0 01-.129-.65c0-.305.067-.569.2-.795.133-.226.31-.41.526-.556.217-.147.465-.255.742-.327.277-.071.56-.108.848-.108.657 0 1.136.08 1.438.239v.881c-.394-.273-.9-.41-1.516-.41-.171 0-.341.017-.513.052-.17.037-.322.096-.455.175a1.025 1.025 0 00-.325.313.823.823 0 00-.126.467c0 .17.032.318.095.442a1.1 1.1 0 00.281.34c.124.102.276.202.454.298.178.097.384.202.616.316.24.12.465.243.68.374.214.13.401.275.561.433.162.159.29.334.385.526.095.193.14.414.14.662 0 .33-.063.609-.191.837a1.577 1.577 0 01-.521.556 2.276 2.276 0 01-.756.31 4.132 4.132 0 01-.903.096c-.104 0-.234-.008-.39-.026a5.399 5.399 0 01-.475-.074 3.85 3.85 0 01-.457-.121 1.426 1.426 0 01-.347-.16zm10.25-2.432c0 1.876-.844 2.814-2.534 2.814-1.618 0-2.427-.902-2.427-2.707v-4.087h.78v4.036c0 1.37.578 2.055 1.73 2.055 1.113 0 1.67-.662 1.67-1.985v-4.106h.781v3.98zm6.446 2.703h-.93l-1.118-1.874a4.072 4.072 0 00-.297-.446 1.696 1.696 0 00-.295-.299 1.012 1.012 0 00-.325-.17 1.306 1.306 0 00-.394-.054h-.641v2.843h-.781v-6.683h1.99c.29 0 .56.037.806.11.246.073.46.183.642.332.182.15.323.336.425.557.103.223.154.482.154.781 0 .232-.035.447-.105.641a1.66 1.66 0 01-.296.519 1.792 1.792 0 01-.466.39 2.397 2.397 0 01-.612.25v.017a1.377 1.377 0 01.525.397c.075.086.15.185.222.296.073.11.154.237.243.384l1.253 2.009zm-4-5.975v2.424h1.06c.195 0 .376-.03.541-.089.167-.059.31-.143.43-.254.121-.11.216-.245.285-.406a1.35 1.35 0 00.101-.538c0-.357-.114-.636-.346-.836-.23-.2-.565-.301-1.002-.301h-1.07zm4.603 5.704v-.922c.106.093.233.176.379.25.147.076.303.14.465.19.163.051.327.09.49.12.165.027.318.04.456.04.48 0 .84-.088 1.078-.268.236-.178.355-.436.355-.77a.901.901 0 00-.119-.47 1.354 1.354 0 00-.327-.367 3.268 3.268 0 00-.495-.318 53.43 53.43 0 00-.617-.318 9.517 9.517 0 01-.651-.36 2.803 2.803 0 01-.525-.4 1.675 1.675 0 01-.351-.496 1.529 1.529 0 01-.129-.65c0-.305.067-.569.2-.795.133-.226.31-.41.525-.556a2.38 2.38 0 01.743-.327 3.4 3.4 0 01.848-.108c.657 0 1.136.08 1.438.239v.881c-.394-.273-.9-.41-1.516-.41-.171 0-.341.017-.513.052a1.5 1.5 0 00-.455.175 1.025 1.025 0 00-.326.313.823.823 0 00-.125.467c0 .17.032.318.095.442a1.1 1.1 0 00.281.34c.124.102.276.202.454.298.178.097.384.202.616.316.24.12.465.243.68.374.214.13.4.275.561.433.162.159.29.334.384.526.096.193.141.414.141.662 0 .33-.063.609-.192.837a1.578 1.578 0 01-.52.556 2.276 2.276 0 01-.756.31 4.132 4.132 0 01-.903.096 3.45 3.45 0 01-.39-.026 5.395 5.395 0 01-.475-.074 3.855 3.855 0 01-.457-.121 1.43 1.43 0 01-.347-.16zm8.831.271H80.35v-6.683h.78v5.975h2.678v.708zm6.463 0h-.864l-.706-1.874h-2.83l-.665 1.874h-.868l2.557-6.683h.81l2.566 6.683zm-1.828-2.577l-1.046-2.847a2.802 2.802 0 01-.101-.448h-.02c-.03.19-.066.338-.106.447l-1.038 2.848h2.311zm7.591 2.577h-.93l-1.118-1.874a4.071 4.071 0 00-.297-.446 1.695 1.695 0 00-.295-.299 1.012 1.012 0 00-.325-.17 1.305 1.305 0 00-.394-.054h-.641v2.843h-.781v-6.683h1.99c.29 0 .56.037.807.11.246.073.46.183.64.332.184.15.325.336.426.557.104.223.154.482.154.781 0 .232-.035.447-.105.641-.07.194-.168.368-.296.519a1.792 1.792 0 01-.465.39 2.397 2.397 0 01-.613.25v.017a1.377 1.377 0 01.525.397c.075.086.15.185.223.296.073.11.154.237.242.384l1.253 2.009zm-4-5.975v2.424h1.06a1.6 1.6 0 00.541-.089c.167-.059.31-.143.43-.254.121-.11.216-.245.285-.406.068-.159.101-.339.101-.538 0-.357-.114-.636-.346-.836-.23-.2-.565-.301-1.001-.301h-1.07zm5.697 5.975h-.782v-6.683h.781v6.683zm7.128 0h-.958l-3.432-5.328a2.198 2.198 0 01-.214-.418h-.027c.024.143.036.449.036.918v4.828h-.78v-6.683h1.014l3.338 5.243c.139.216.23.366.269.447h.019c-.031-.192-.047-.52-.047-.983v-4.707h.782v6.683zm2.53 0h-.782v-6.683h.782v6.683zm9.143 0h-.93l-1.118-1.874a3.96 3.96 0 00-.297-.446 1.668 1.668 0 00-.295-.299 1.002 1.002 0 00-.325-.17 1.308 1.308 0 00-.394-.054h-.641v2.843h-.781v-6.683h1.99c.291 0 .561.037.807.11.246.073.46.183.641.332.183.15.324.336.425.557.104.223.154.482.154.781 0 .232-.035.447-.104.641-.07.194-.169.368-.297.519a1.798 1.798 0 01-.465.39 2.406 2.406 0 01-.613.25v.017a1.377 1.377 0 01.525.397c.075.086.15.185.223.296.073.11.154.237.242.384l1.253 2.009zm-4-5.975v2.424h1.06c.195 0 .376-.03.541-.089a1.163 1.163 0 00.715-.66c.068-.159.101-.339.101-.538 0-.357-.114-.636-.346-.836-.23-.2-.565-.301-1.001-.301h-1.07zm5.697 5.975h-.781v-6.683h.781v6.683zm6.711-6.683l-2.47 6.683h-.86l-2.418-6.683h.87l1.846 5.299c.059.17.103.367.135.591h.017c.026-.186.077-.386.154-.6l1.884-5.29h.842zM128.352 40c-.946 0-1.703-.312-2.272-.937-.568-.623-.853-1.436-.853-2.437 0-1.075.29-1.932.869-2.572.58-.64 1.37-.96 2.368-.96.921 0 1.662.311 2.224.931.564.622.844 1.435.844 2.439 0 1.09-.288 1.952-.865 2.586-.576.633-1.347.95-2.315.95zm.055-6.197c-.7 0-1.268.253-1.706.759-.436.507-.656 1.172-.656 1.994 0 .824.213 1.486.64 1.989.425.5.983.752 1.667.752.731 0 1.308-.239 1.73-.717.422-.48.631-1.149.631-2.01 0-.882-.203-1.563-.612-2.045-.41-.482-.975-.722-1.694-.722zm6.097 3.69c0 .792-.167 1.408-.502 1.849-.335.438-.784.658-1.344.658a1.59 1.59 0 01-.641-.111v-.774c.166.121.384.182.65.182.704 0 1.056-.598 1.056-1.794v-4.297h.781v4.287zm5.151 2.396h-3.459v-6.683h.781v5.975h2.678v.708zm6.465 0h-.866l-.706-1.874h-2.828l-.665 1.874h-.868l2.556-6.683h.81l2.567 6.683zm-1.829-2.577l-1.046-2.847a2.908 2.908 0 01-.102-.448h-.019c-.03.19-.066.338-.106.447l-1.038 2.848h2.311zm8.185 2.577h-.958l-3.432-5.328a2.257 2.257 0 01-.214-.418h-.027c.024.143.037.449.037.918v4.828h-.781v-6.683h1.014l3.338 5.243c.139.216.23.366.27.447h.019c-.032-.192-.048-.52-.048-.983v-4.707h.782v6.683zm5.691-5.975h-1.925v5.975h-.781v-5.975h-1.921v-.708h4.627v.708zm1.828 5.975h-.781v-6.683h.781v6.683zm6.535 0h-.93l-1.118-1.874a3.96 3.96 0 00-.297-.446 1.668 1.668 0 00-.295-.299 1.002 1.002 0 00-.325-.17 1.308 1.308 0 00-.394-.054h-.641v2.843h-.781v-6.683h1.99c.291 0 .561.037.807.11.246.073.46.183.641.332.183.15.324.336.425.557.104.223.154.482.154.781 0 .232-.035.447-.104.641-.07.194-.169.368-.297.519a1.798 1.798 0 01-.465.39 2.406 2.406 0 01-.613.25v.017a1.377 1.377 0 01.526.397c.074.086.149.185.222.296.073.11.154.237.242.384l1.253 2.009zm-4-5.975v2.424h1.06c.195 0 .376-.03.541-.089.167-.059.31-.143.431-.254.12-.11.216-.245.284-.406.068-.159.101-.339.101-.538 0-.357-.114-.636-.346-.836-.23-.2-.565-.301-1.001-.301h-1.07zm5.696 5.975h-.781v-6.683h.781v6.683zm1.442-.271v-.922c.106.093.233.176.379.25.148.076.303.14.465.19.164.051.327.09.491.12.165.027.317.04.455.04.481 0 .84-.088 1.078-.268.236-.178.356-.436.356-.77a.896.896 0 00-.12-.47 1.347 1.347 0 00-.326-.367 3.264 3.264 0 00-.496-.318 74.24 74.24 0 00-.617-.318 10.543 10.543 0 01-.651-.36 2.813 2.813 0 01-.525-.4 1.688 1.688 0 01-.351-.496 1.523 1.523 0 01-.129-.65c0-.305.067-.569.201-.795a1.72 1.72 0 01.525-.556c.217-.147.465-.255.743-.327a3.37 3.37 0 01.847-.108c.657 0 1.137.08 1.438.239v.881c-.393-.273-.9-.41-1.516-.41-.171 0-.341.017-.512.052-.17.037-.322.096-.456.175a1.023 1.023 0 00-.325.313.825.825 0 00-.126.467c0 .17.032.318.096.442.063.124.157.237.281.34.123.102.276.202.453.298.178.097.385.202.616.316.24.12.465.243.68.374.214.13.401.275.562.433.162.159.289.334.384.526.095.193.141.414.141.662 0 .33-.064.609-.192.837a1.578 1.578 0 01-.521.556 2.275 2.275 0 01-.755.31 4.137 4.137 0 01-.903.096 3.48 3.48 0 01-.391-.026 5.382 5.382 0 01-.474-.074 3.798 3.798 0 01-.457-.121 1.418 1.418 0 01-.348-.16zm10.385.271h-.781V36.84h-3.451v3.048h-.781v-6.683h.781v2.932h3.451v-2.932h.781v6.683zm11.156 0h-.776v-4.483c0-.355.021-.787.065-1.301h-.019a4.07 4.07 0 01-.2.647l-2.277 5.137h-.383l-2.273-5.098a3.982 3.982 0 01-.2-.686h-.019c.025.267.037.705.037 1.309v4.475h-.753v-6.683h1.032l2.046 4.66c.159.357.26.624.308.801h.027c.133-.366.241-.64.32-.82l2.089-4.64h.976v6.682zm6.915 0h-.865l-.706-1.874h-2.828l-.665 1.874h-.869l2.557-6.683h.81l2.566 6.683zm-1.828-2.577l-1.046-2.847a2.908 2.908 0 01-.102-.448h-.019c-.03.19-.066.338-.106.447l-1.038 2.848h2.311zm7.59 2.577h-.93l-1.117-1.874a4.1 4.1 0 00-.297-.446 1.702 1.702 0 00-.295-.299 1.017 1.017 0 00-.326-.17 1.302 1.302 0 00-.393-.054h-.641v2.843h-.782v-6.683h1.991c.29 0 .56.037.806.11.246.073.461.183.641.332.183.15.324.336.426.557.103.223.154.482.154.781 0 .232-.035.447-.105.641-.07.194-.168.368-.297.519a1.782 1.782 0 01-.465.39 2.39 2.39 0 01-.613.25v.017c.113.05.21.106.293.17.081.065.16.14.233.227.075.086.149.185.222.296.073.11.154.237.243.384l1.252 2.009zm-3.999-5.975v2.424h1.06c.195 0 .376-.03.541-.089.167-.059.309-.143.43-.254a1.14 1.14 0 00.284-.406 1.34 1.34 0 00.102-.538c0-.357-.114-.636-.346-.836-.23-.2-.565-.301-1.002-.301h-1.069zm9.556 5.975h-1.089l-2.576-3.058a1.803 1.803 0 01-.176-.232h-.019v3.29h-.781v-6.683h.781v3.14h.019c.043-.068.101-.143.176-.227l2.492-2.913h.973l-2.86 3.205 3.06 3.478zm6.044 0h-.865l-.707-1.874h-2.828l-.665 1.874h-.868l2.557-6.683h.809l2.567 6.683zm-1.829-2.577l-1.046-2.847a2.816 2.816 0 01-.101-.448h-.019c-.031.19-.067.338-.107.447l-1.038 2.848h2.311zm7.441-3.92l-3.906 5.789h3.812v.708h-4.979v-.22l3.873-5.755h-3.561v-.708h4.761v.186zm1.86 6.497h-.781v-6.683h.781v6.683zm9.181 0v-6.683h1.841c2.349 0 3.525 1.085 3.525 3.258 0 1.03-.327 1.86-.979 2.486-.653.625-1.526.939-2.621.939h-1.766zm.781-5.975v5.267h.995c.874 0 1.554-.236 2.041-.705.487-.47.73-1.134.73-1.995 0-1.711-.908-2.567-2.725-2.567h-1.041zm10.773 3.272c0 1.876-.844 2.814-2.535 2.814-1.617 0-2.427-.902-2.427-2.707v-4.087h.781v4.036c0 1.37.578 2.055 1.73 2.055 1.113 0 1.67-.662 1.67-1.985v-4.106h.781v3.98zM250 39.889h-1.088l-2.576-3.058a1.847 1.847 0 01-.177-.232h-.019v3.29h-.781v-6.683h.781v3.14h.019c.043-.068.102-.143.177-.227l2.492-2.913h.972l-2.86 3.205L250 39.89z" fill="#0A7F2E"/></g><defs><clipPath id="clip0"><path fill="#fff" d="M0 0h250v40H0z"/></clipPath></defs></svg>